{"title":"Girl Meets World 2014 (Pilot)  -GHOST-","uid":10445905,"size":64695735,"categoryP":"video","categoryS":"tv_shows","magnet":"?xt=urn:btih:87eddc6ddacd7da500d25762cf23dfc794db48c3&amp;dn=Girl+Meets+World+2014+%28Pilot%29++-GHOST-&amp;tr=udp%3A%2F%2Ftracker.openbittorrent.com%3A80&amp;tr=udp%3A%2F%2Fopen.demonii.com%3A1337&amp;tr=udp%3A%2F%2Ftracker.coppersurfer.tk%3A6969&amp;tr=udp%3A%2F%2Fexodus.desync.com%3A6969","seeders":1,"leechers":1,"uploader":"---GHOST---","files":6,"time":1403962432,"description":" Girl Meets World 2014 (Pilot) -GHOST-\n=======================================\n\n\n Snapshot\n----------\n\nSnapshot 1 - http://bayimg.com/maOFhaaFP\nSnapshot 2 - http://bayimg.com/MAoFIaAfp\nSnapshot 3 - http://bayimg.com/MaoFjAaFP\nSnapshot 4 - http://bayimg.com/mAOFkAaFp\n\n\n-----------------------------------------------------\n\n\n Girl Meets World 2014 (Pilot) -GHOST-\n=======================================\n\n\nGeneral\n\nComplete name                            : Girl Meets World 2014 (Pilot).mp4\nFormat                                   : MPEG-4\nFormat profile                           : Base Media / Version 2\nCodec ID                                 : mp42\nFile size                                : 61.6 MiB\nDuration                                 : 22mn 31s\nOverall bit rate mode                    : Variable\nOverall bit rate                         : 382 Kbps\nEncoded date                             : UTC 2014-05-21 15:29:16\nTagged date                              : UTC 2014-05-21 15:29:16\n\n\nVideo\n\nID                                       : 201\nFormat                                   : AVC\nFormat/Info                              : Advanced Video Codec\nFormat profile                           : &lt;a class=&quot;__cf_email__&quot; href=&quot;/cdn-cgi/l/email-protection&quot; data-cfemail=&quot;e4ac8d838ca4a8d7cad4&quot;&gt;[email&amp;#160;protected]&lt;/a&gt;&lt;script cf-hash='f9e31' type=&quot;text/javascript&quot;&gt;\n/* &lt;![CDATA[ */!function(){try{var t=&quot;currentScript&quot;in document?document.currentScript:function(){for(var t=document.getElementsByTagName(&quot;script&quot;),e=t.length;e--;)if(t[e].getAttribute(&quot;cf-hash&quot;))return t[e]}();if(t&amp;&amp;t.previousSibling){var e,r,n,i,c=t.previousSibling,a=c.getAttribute(&quot;data-cfemail&quot;);if(a){for(e=&quot;&quot;,r=parseInt(a.substr(0,2),16),n=2;a.length-n;n+=2)i=parseInt(a.substr(n,2),16)^r,e+=String.fromCharCode(i);e=document.createTextNode(e),c.parentNode.replaceChild(e,c)}}}catch(u){}}();/* ]]&gt; */&lt;/script&gt;\nFormat settings, CABAC                   : Yes\nFormat settings, ReFrames                : 4 frames\nCodec ID                                 : avc1\nCodec ID/Info                            : Advanced Video Coding\nDuration                                 : 22mn 31s\nBit rate                                 : 346 Kbps\nMaximum bit rate                         : 968 Kbps\nWidth                                    : 640 pixels\nHeight                                   : 356 pixels\nDisplay aspect ratio                     : 16:9\nFrame rate mode                          : Constant\nFrame rate                               : 23.976 fps\nColor space                              : YUV\nChroma subsampling                       : 4:2:0\nBit depth                                : 8 bits\nScan type                                : Progressive\nBits/(Pixel*Frame)                       : 0.063\nStream size                              : 55.8 MiB (91%)\nWriting library                          : x264 core 142 r34 d6b4e63\nEncoding settings                        : cabac=1 / ref=1 / deblock=1:0:0 / analyse=0x3:0x113 / \n me=hex / subme=2 / psy=1 / psy_rd=1.00:0.00 / mixed_ref=0 / me_range=16 / chroma_me=1 / trellis=0 /\n 8x8dct=1 / cqm=0 / deadzone=21,11 / fast_pskip=1 / chroma_qp_offset=0 / threads=24 /\n lookahead_threads=2 / sliced_threads=0 / nr=0 / decimate=1 / interlaced=0 / bluray_compat=0 /\n constrained_intra=0 / bframes=3 / b_pyramid=2 / b_adapt=1 / b_bias=0 / direct=1 / weightb=1 /\n open_gop=0 / weightp=1 / keyint=60 / keyint_min=6 / scenecut=40 / intra_refresh=0 / rc_lookahead=10 /\n rc=crf / mbtree=1 / crf=25.0 / qcomp=0.60 / qpmin=0 / qpmax=69 / qpstep=4 / ip_ratio=1.40 / aq=1:1.00\nTagged date                              : UTC 2014-05-21 15:29:16\n\n\nAudio\n\nID                                       : 101\nFormat                                   : AAC\nFormat/Info                              : Advanced Audio Codec\nFormat profile                           : LC\nCodec ID                                 : 40\nDuration                                 : 22mn 31s\nBit rate mode                            : Variable\nBit rate                                 : 32.0 Kbps\nMaximum bit rate                         : 37.3 Kbps\nChannel(s)                               : 2 channels\nChannel positions                        : Front: L R\nSampling rate                            : 48.0 KHz\nCompression mode                         : Lossy\nStream size                              : 5.16 MiB (8%)\nEncoded date                             : UTC 2014-05-21 15:29:16\nTagged date                              : UTC 2014-05-21 15:29:16\n\n","torrent":{"xt":"urn:btih:87eddc6ddacd7da500d25762cf23dfc794db48c3","amp;dn":"Girl+Meets+World+2014+%28Pilot%29++-GHOST-","amp;tr":["udp%3A%2F%2Ftracker.openbittorrent.com%3A80","udp%3A%2F%2Fopen.demonii.com%3A1337","udp%3A%2F%2Ftracker.coppersurfer.tk%3A6969","udp%3A%2F%2Fexodus.desync.com%3A6969"],"infoHash":"87eddc6ddacd7da500d25762cf23dfc794db48c3","infoHashBuffer":{"type":"Buffer","data":[135,237,220,109,218,205,125,165,0,210,87,98,207,35,223,199,148,219,72,195]},"announce":[],"urlList":[]}}